<svg width="176" height="40" viewBox="0 0 176 40" fill="none" xmlns="http://www.w3.org/2000/svg">
<circle cx="20" cy="20" r="15.6863" fill="#EC1A3A"/>
<path fill-rule="evenodd" clip-rule="evenodd" d="M15.6714 1.4681C17.0526 1.14903 18.4915 0.980392 19.9697 0.980392C30.4739 0.980392 38.9893 9.49576 38.9893 20C38.9893 20.6055 38.961 21.2044 38.9057 21.7954L39.8818 21.8872C39.9399 21.2659 39.9697 20.6364 39.9697 20C39.9697 8.9543 31.0154 0 19.9697 0C18.4108 0 16.8935 0.178354 15.4372 0.515771L15.6714 1.4681ZM36.1282 31.788L35.3213 31.2304C31.8606 35.9531 26.2732 39.0196 19.9697 39.0196C10.8954 39.0196 3.30529 32.6648 1.40699 24.1627L0.455378 24.4006C2.46019 33.3293 10.4359 40 19.9697 40C26.6077 40 32.4903 36.7662 36.1282 31.788ZM10.7778 3.34503C5.50481 6.2614 1.76381 11.6091 1.06737 17.8756L0.0981445 17.7206C0.847535 11.1152 4.81449 5.48567 10.3937 2.4372L10.7778 3.34503Z" fill="#EC1A3A"/>
<path fill-rule="evenodd" clip-rule="evenodd" d="M5.74952 9.42396C3.55397 12.3775 2.25488 16.037 2.25488 20C2.25488 21.3694 2.41001 22.7026 2.70364 23.983L3.55447 23.8006C3.2733 22.5791 3.12473 21.3068 3.12473 19.9999C3.12473 16.2532 4.34578 12.7916 6.41165 9.9915L5.74952 9.42396ZM16.141 3.56792L15.9205 2.72605C17.2303 2.4179 18.5961 2.25488 20 2.25488C24.1343 2.25488 27.9384 3.66875 30.9552 6.03936L30.3762 6.69074C27.514 4.45616 23.9125 3.12467 20 3.12467C18.6723 3.12467 17.3804 3.278 16.141 3.56792ZM36.5033 16.4597C36.747 17.6013 36.8752 18.7856 36.8752 19.9999C36.8752 26.3229 33.3977 31.8337 28.2508 34.724L28.6734 35.4846C34.087 32.4457 37.7451 26.6501 37.7451 20C37.7451 18.6896 37.603 17.4124 37.3335 16.1829L36.5033 16.4597ZM23.8931 37.3167L23.6165 36.4867C22.4514 36.7411 21.2413 36.8752 20 36.8752C13.7478 36.8752 8.28978 33.4751 5.37402 28.4231L4.65537 28.9182C7.73003 34.197 13.4507 37.7451 20 37.7451C21.3374 37.7451 22.6403 37.5971 23.8931 37.3167Z" fill="#EC1A3A"/>
<path d="M52.1996 12.248H58.5116C59.6156 12.248 60.6236 12.424 61.5356 12.776C62.4476 13.128 63.2236 13.656 63.8636 14.36C64.5036 15.048 64.9996 15.92 65.3516 16.976C65.7036 18.016 65.8796 19.232 65.8796 20.624C65.8796 22.016 65.7036 23.24 65.3516 24.296C64.9996 25.336 64.5036 26.208 63.8636 26.912C63.2236 27.6 62.4476 28.12 61.5356 28.472C60.6236 28.824 59.6156 29 58.5116 29H52.1996V12.248ZM58.5116 25.76C59.5996 25.76 60.4556 25.456 61.0796 24.848C61.7036 24.24 62.0156 23.264 62.0156 21.92V19.328C62.0156 17.984 61.7036 17.008 61.0796 16.4C60.4556 15.792 59.5996 15.488 58.5116 15.488H55.8476V25.76H58.5116ZM73.9979 29.288C73.0379 29.288 72.1819 29.136 71.4299 28.832C70.6779 28.512 70.0379 28.072 69.5099 27.512C68.9979 26.936 68.6059 26.24 68.3339 25.424C68.0779 24.608 67.9499 23.696 67.9499 22.688C67.9499 21.696 68.0779 20.8 68.3339 20C68.5899 19.184 68.9659 18.488 69.4619 17.912C69.9739 17.336 70.5979 16.896 71.3339 16.592C72.0699 16.272 72.9099 16.112 73.8539 16.112C74.8939 16.112 75.7819 16.288 76.5179 16.64C77.2699 16.992 77.8779 17.464 78.3419 18.056C78.8219 18.648 79.1659 19.336 79.3739 20.12C79.5979 20.888 79.7099 21.696 79.7099 22.544V23.6H71.6219V23.792C71.6219 24.624 71.8459 25.288 72.2939 25.784C72.7419 26.264 73.4459 26.504 74.4059 26.504C75.1419 26.504 75.7419 26.36 76.2059 26.072C76.6699 25.768 77.1019 25.408 77.5019 24.992L79.2779 27.2C78.7179 27.856 77.9819 28.368 77.0699 28.736C76.1739 29.104 75.1499 29.288 73.9979 29.288ZM73.9259 18.728C73.2059 18.728 72.6379 18.968 72.2219 19.448C71.8219 19.912 71.6219 20.536 71.6219 21.32V21.512H76.0379V21.296C76.0379 20.528 75.8619 19.912 75.5099 19.448C75.1739 18.968 74.6459 18.728 73.9259 18.728ZM91.5384 12.248V22.52C91.5384 23.704 91.7704 24.592 92.2344 25.184C92.6984 25.76 93.4744 26.048 94.5624 26.048C95.6504 26.048 96.4264 25.76 96.8904 25.184C97.3544 24.592 97.5864 23.704 97.5864 22.52V12.248H101.138V22.136C101.138 23.368 101.018 24.44 100.778 25.352C100.554 26.248 100.178 26.992 99.6504 27.584C99.1224 28.16 98.4424 28.592 97.6104 28.88C96.7784 29.152 95.7624 29.288 94.5624 29.288C93.3624 29.288 92.3464 29.152 91.5144 28.88C90.6824 28.592 90.0024 28.16 89.4744 27.584C88.9464 26.992 88.5624 26.248 88.3224 25.352C88.0984 24.44 87.9864 23.368 87.9864 22.136V12.248H91.5384ZM104.554 29V16.4H108.106V19.136H108.226C108.29 18.784 108.402 18.448 108.562 18.128C108.722 17.792 108.93 17.496 109.186 17.24C109.458 16.984 109.778 16.784 110.146 16.64C110.514 16.48 110.946 16.4 111.442 16.4H112.066V19.712H111.178C110.138 19.712 109.362 19.848 108.85 20.12C108.354 20.392 108.106 20.896 108.106 21.632V29H104.554ZM125.593 29.912C125.593 30.584 125.473 31.176 125.233 31.688C125.009 32.2 124.633 32.632 124.105 32.984C123.577 33.352 122.873 33.624 121.993 33.8C121.129 33.992 120.057 34.088 118.777 34.088C117.689 34.088 116.761 34.016 115.993 33.872C115.241 33.744 114.625 33.552 114.145 33.296C113.681 33.056 113.337 32.752 113.113 32.384C112.905 32.032 112.801 31.624 112.801 31.16C112.801 30.456 113.009 29.904 113.425 29.504C113.841 29.104 114.417 28.856 115.153 28.76V28.496C114.545 28.384 114.089 28.128 113.785 27.728C113.481 27.312 113.329 26.832 113.329 26.288C113.329 25.952 113.393 25.664 113.521 25.424C113.665 25.168 113.841 24.952 114.049 24.776C114.273 24.584 114.529 24.432 114.817 24.32C115.105 24.208 115.393 24.12 115.681 24.056V23.96C114.913 23.608 114.345 23.128 113.977 22.52C113.609 21.896 113.425 21.176 113.425 20.36C113.425 19.08 113.865 18.056 114.745 17.288C115.641 16.504 117.001 16.112 118.825 16.112C119.657 16.112 120.369 16.192 120.961 16.352V15.872C120.961 15.2 121.121 14.72 121.441 14.432C121.777 14.128 122.249 13.976 122.857 13.976H124.849V16.616H122.065V16.76C122.801 17.112 123.345 17.6 123.697 18.224C124.049 18.832 124.225 19.544 124.225 20.36C124.225 21.624 123.777 22.64 122.881 23.408C122.001 24.16 120.649 24.536 118.825 24.536C118.009 24.536 117.265 24.448 116.593 24.272C116.225 24.512 116.041 24.848 116.041 25.28C116.041 25.584 116.153 25.824 116.377 26C116.617 26.16 117.009 26.24 117.553 26.24H121.201C122.737 26.24 123.849 26.56 124.537 27.2C125.241 27.84 125.593 28.744 125.593 29.912ZM122.257 30.392C122.257 30.024 122.113 29.744 121.825 29.552C121.537 29.36 121.033 29.264 120.313 29.264H115.993C115.833 29.424 115.713 29.6 115.633 29.792C115.569 30 115.537 30.2 115.537 30.392C115.537 30.856 115.737 31.192 116.137 31.4C116.537 31.624 117.217 31.736 118.177 31.736H119.617C120.577 31.736 121.257 31.624 121.657 31.4C122.057 31.192 122.257 30.856 122.257 30.392ZM118.825 22.208C119.529 22.208 120.049 22.064 120.385 21.776C120.737 21.472 120.913 21.04 120.913 20.48V20.192C120.913 19.632 120.737 19.208 120.385 18.92C120.049 18.616 119.529 18.464 118.825 18.464C118.121 18.464 117.593 18.616 117.241 18.92C116.905 19.208 116.737 19.632 116.737 20.192V20.48C116.737 21.04 116.905 21.472 117.241 21.776C117.593 22.064 118.121 22.208 118.825 22.208ZM132.287 29.288C131.327 29.288 130.471 29.136 129.719 28.832C128.967 28.512 128.327 28.072 127.799 27.512C127.287 26.936 126.895 26.24 126.623 25.424C126.367 24.608 126.239 23.696 126.239 22.688C126.239 21.696 126.367 20.8 126.623 20C126.879 19.184 127.255 18.488 127.751 17.912C128.263 17.336 128.887 16.896 129.623 16.592C130.359 16.272 131.199 16.112 132.143 16.112C133.183 16.112 134.071 16.288 134.807 16.64C135.559 16.992 136.167 17.464 136.631 18.056C137.111 18.648 137.455 19.336 137.663 20.12C137.887 20.888 137.999 21.696 137.999 22.544V23.6H129.911V23.792C129.911 24.624 130.135 25.288 130.583 25.784C131.031 26.264 131.735 26.504 132.695 26.504C133.431 26.504 134.031 26.36 134.495 26.072C134.959 25.768 135.391 25.408 135.791 24.992L137.567 27.2C137.007 27.856 136.271 28.368 135.359 28.736C134.463 29.104 133.439 29.288 132.287 29.288ZM132.215 18.728C131.495 18.728 130.927 18.968 130.511 19.448C130.111 19.912 129.911 20.536 129.911 21.32V21.512H134.327V21.296C134.327 20.528 134.151 19.912 133.799 19.448C133.463 18.968 132.935 18.728 132.215 18.728ZM140.508 29V16.4H144.06V18.536H144.204C144.428 17.88 144.82 17.312 145.38 16.832C145.94 16.352 146.716 16.112 147.708 16.112C149.004 16.112 149.98 16.544 150.636 17.408C151.308 18.272 151.644 19.504 151.644 21.104V29H148.092V21.392C148.092 20.576 147.964 19.976 147.708 19.592C147.452 19.192 146.996 18.992 146.34 18.992C146.052 18.992 145.772 19.032 145.5 19.112C145.228 19.176 144.98 19.288 144.756 19.448C144.548 19.608 144.38 19.808 144.252 20.048C144.124 20.272 144.06 20.536 144.06 20.84V29H140.508ZM159.22 29C157.988 29 157.052 28.688 156.412 28.064C155.788 27.44 155.476 26.528 155.476 25.328V19.16H153.7V16.4H154.588C155.068 16.4 155.396 16.288 155.572 16.064C155.748 15.824 155.836 15.488 155.836 15.056V12.992H159.028V16.4H161.524V19.16H159.028V26.24H161.332V29H159.22ZM158.62 30.008C159.148 30.008 159.556 30.136 159.844 30.392C160.148 30.648 160.3 31.016 160.3 31.496V31.832C160.3 32.568 160.148 33.28 159.844 33.968C159.54 34.656 159.156 35.2 158.692 35.6H156.652C157.068 35.248 157.388 34.88 157.612 34.496C157.836 34.128 158.012 33.704 158.14 33.224C157.676 33.192 157.356 33.024 157.18 32.72C157.02 32.432 156.94 32.112 156.94 31.76V31.496C156.94 31.016 157.084 30.648 157.372 30.392C157.676 30.136 158.092 30.008 158.62 30.008ZM173.304 29C172.664 29 172.128 28.8 171.696 28.4C171.28 28 171.016 27.464 170.904 26.792H170.76C170.568 27.608 170.144 28.232 169.488 28.664C168.832 29.08 168.024 29.288 167.064 29.288C165.8 29.288 164.832 28.952 164.16 28.28C163.488 27.608 163.152 26.72 163.152 25.616C163.152 24.288 163.632 23.304 164.592 22.664C165.568 22.008 166.888 21.68 168.552 21.68H170.544V20.888C170.544 20.28 170.384 19.8 170.064 19.448C169.744 19.08 169.208 18.896 168.456 18.896C167.752 18.896 167.192 19.048 166.776 19.352C166.36 19.656 166.016 20 165.744 20.384L163.632 18.512C164.144 17.76 164.784 17.176 165.552 16.76C166.336 16.328 167.392 16.112 168.72 16.112C170.512 16.112 171.856 16.504 172.752 17.288C173.648 18.072 174.096 19.216 174.096 20.72V26.24H175.272V29H173.304ZM168.384 26.816C168.976 26.816 169.48 26.688 169.896 26.432C170.328 26.176 170.544 25.76 170.544 25.184V23.696H168.816C167.424 23.696 166.728 24.168 166.728 25.112V25.472C166.728 25.936 166.872 26.28 167.16 26.504C167.448 26.712 167.856 26.816 168.384 26.816ZM168.792 15.104C168.088 15.104 167.48 14.976 166.968 14.72C166.456 14.448 166.024 14.112 165.672 13.712C165.32 13.312 165.024 12.872 164.784 12.392C164.56 11.912 164.376 11.456 164.232 11.024L166.176 10.016L166.656 10.808C167.008 11.384 167.344 11.832 167.664 12.152C168 12.472 168.376 12.632 168.792 12.632C169.208 12.632 169.584 12.472 169.92 12.152C170.256 11.832 170.6 11.384 170.952 10.808L171.432 10.016L173.352 11.024C173.208 11.456 173.016 11.912 172.776 12.392C172.536 12.872 172.232 13.312 171.864 13.712C171.496 14.112 171.056 14.448 170.544 14.72C170.048 14.976 169.464 15.104 168.792 15.104Z" fill="#EC1A3A"/>
</svg>
